<svg width="23" height="28" viewBox="0 0 23 28" fill="none" xmlns="http://www.w3.org/2000/svg">
<mask id="mask0_505_16658" style="mask-type:luminance" maskUnits="userSpaceOnUse" x="0" y="0" width="23" height="28">
<path d="M22.9311 0H0V28H22.9311V0Z" fill="white"/>
</mask>
<g mask="url(#mask0_505_16658)">
<path d="M22.9311 11.4748C22.9318 12.4479 22.8069 13.417 22.5594 14.3581C22.3176 15.2811 21.9634 16.1711 21.5049 17.0079C21.2484 17.4728 20.9587 17.9185 20.638 18.3416C20.6255 18.3633 20.6164 18.3754 20.6134 18.3833L20.6105 18.3862C20.3607 18.7156 20.0939 19.0316 19.8111 19.3331C19.4101 19.7596 18.9764 20.1542 18.5141 20.5135C18.5141 20.5135 15.1878 22.902 11.198 22.902L10.5432 22.9049L7.74291 22.9233V15.2037H11.4747C11.9662 15.2077 12.453 15.1092 12.9043 14.9145C13.3492 14.7255 13.7539 14.4533 14.0967 14.1126C14.4386 13.7686 14.7101 13.3614 14.8961 12.9135C15.0918 12.4594 15.1902 11.9692 15.1849 11.4748C15.1866 11.224 15.1628 10.9738 15.114 10.7279C15.1124 10.7251 15.1115 10.722 15.1111 10.7187C15.0647 10.4821 14.9926 10.2512 14.8961 10.0302C14.5181 9.12878 13.8019 8.41142 12.901 8.03219C12.451 7.83727 11.9651 7.73886 11.4747 7.74337H7.74291C7.74236 5.68994 6.92644 3.72078 5.47447 2.26876C4.02253 0.816736 2.05342 0.000697295 0 3.44067e-05H11.4747C12.5042 -0.00250963 13.5291 0.136038 14.521 0.411811C15.4771 0.678548 16.3946 1.06815 17.2505 1.57087C17.558 1.75217 17.856 1.94889 18.1453 2.15811L18.1695 2.17312C19.4648 3.11325 20.5513 4.3117 21.3603 5.69282C21.8624 6.55017 22.252 7.46867 22.5194 8.42563C22.7949 9.41848 22.9335 10.4444 22.9311 11.4748Z" fill="url(#paint0_linear_505_16658)"/>
<path d="M21.6893 27.9991H13.4021L12.0959 24.9774L11.1969 22.8998C15.1867 22.8998 18.513 20.5112 18.513 20.5112L19.4658 22.7618L19.6325 23.1524C19.6325 23.1553 19.6358 23.1553 19.6358 23.1582L21.6893 27.9991Z" fill="url(#paint1_linear_505_16658)"/>
<path d="M7.74291 7.74332V27.9987H0V0C2.05342 0.00066289 4.02253 0.816702 5.47447 2.26872C6.92644 3.72075 7.74236 5.6899 7.74291 7.74332Z" fill="#009FFF"/>
<g style="mix-blend-mode:multiply" opacity="0.16">
<path d="M7.74291 7.74332C7.74236 5.6899 6.92644 3.72075 5.47447 2.26872C4.02253 0.816702 2.05342 0.00066289 0 0H7.01146C8.57605 1.46331 10.0794 3.86103 10.4511 7.74332H7.74291Z" fill="black"/>
</g>
<g style="mix-blend-mode:multiply" opacity="0.16">
<path d="M10.543 15.2056V22.9055L7.74268 22.9239V15.2056H10.543Z" fill="black"/>
</g>
<g style="mix-blend-mode:multiply" opacity="0.16">
<path d="M19.467 22.7604C17.1737 23.9623 14.6718 24.7145 12.0959 24.9764L11.1969 22.8988C15.1867 22.8988 18.513 20.5103 18.513 20.5103L19.467 22.7604Z" fill="black"/>
</g>
<g style="mix-blend-mode:multiply" opacity="0.25">
<path d="M22.9311 11.4714C22.9318 12.4445 22.8068 13.4136 22.5594 14.3546C22.3175 15.2777 21.9634 16.1677 21.5049 17.0045C21.2484 17.4694 20.9587 17.9151 20.638 18.3382C20.6934 18.249 20.8285 18.034 21.0098 17.7051C21.3411 17.1059 21.6257 16.4821 21.8613 15.8392C22.1904 14.9394 22.4164 14.0051 22.5348 13.0543C22.5963 12.5217 22.625 11.9858 22.6206 11.4497C22.6152 10.8959 22.5701 10.3432 22.4856 9.79593C22.4054 9.24853 22.2841 8.70797 22.1226 8.17883C21.9665 7.66573 21.7788 7.1628 21.5603 6.67301C21.3521 6.21434 21.118 5.76781 20.8593 5.33557C20.6093 4.92671 20.3492 4.54869 20.0937 4.2136C19.6783 3.66958 19.2209 3.15886 18.7258 2.68611C18.3666 2.33851 18.1453 2.1543 18.1453 2.1543L18.1694 2.1693C19.4649 3.10944 20.5513 4.30787 21.3603 5.68899C21.8625 6.54635 22.252 7.46484 22.5194 8.42181C22.795 9.41482 22.9335 10.4408 22.9311 11.4714Z" fill="black"/>
</g>
<g style="mix-blend-mode:multiply" opacity="0.25">
<path d="M21.6893 27.9985H15.5077C16.0241 27.9218 16.5375 27.8756 17.0539 27.8318C17.5703 27.788 18.0838 27.758 18.596 27.7334C19.1082 27.7088 19.6288 27.6968 20.1423 27.6872L21.2117 27.678C21.1071 27.42 21.0033 27.1616 20.9046 26.9003C20.7416 26.4919 20.5878 26.083 20.4403 25.6679C20.2927 25.2528 20.1485 24.8381 20.0097 24.4176C19.8709 23.997 19.7455 23.5786 19.6346 23.1543L21.6893 27.9985Z" fill="black"/>
</g>
<g style="mix-blend-mode:screen" opacity="0.7">
<path d="M0.322581 14.0017C0.319664 14.8769 0.316333 15.7521 0.310498 16.6115C0.304663 17.4709 0.291736 18.3203 0.282567 19.1414C0.261311 20.7826 0.227138 22.3135 0.18421 23.6259C0.107523 26.2516 0 28 0 28V0C0 0 0.107523 1.75047 0.18421 4.37409C0.225888 5.68694 0.261311 7.21735 0.282567 8.85904C0.291736 9.67968 0.310498 10.5282 0.310498 11.3889C0.310498 12.2495 0.31883 13.1256 0.322581 14.0017Z" fill="white"/>
</g>
<g style="mix-blend-mode:multiply" opacity="0.25">
<path d="M15.326 12.0732C15.3144 12.303 15.2773 12.5308 15.2155 12.7525C15.1818 12.8692 15.1384 12.9984 15.0984 13.1089C15.0519 13.2331 14.9976 13.3544 14.9359 13.4719C14.8084 13.7213 14.6516 13.9545 14.4687 14.1666C14.2794 14.3847 14.067 14.5814 13.8352 14.7535C13.5982 14.9193 13.3448 15.0605 13.0791 15.1748C12.822 15.2838 12.5526 15.3611 12.2768 15.4053C12.0208 15.4467 11.7607 15.4581 11.502 15.4391C11.2687 15.427 11.0536 15.4053 10.8506 15.3836C10.0483 15.3069 9.51318 15.1994 9.51318 15.1994H11.4745C11.966 15.2034 12.4528 15.1049 12.9041 14.9102C13.349 14.7212 13.7537 14.449 14.0965 14.1083C14.4384 13.7644 14.7099 13.3571 14.8959 12.9092C15.0916 12.4551 15.19 11.965 15.1847 11.4705C15.1864 11.2198 15.1626 10.9696 15.1138 10.7236C15.163 10.8358 15.2022 10.9522 15.231 11.0712C15.3118 11.3987 15.3438 11.7363 15.326 12.0732Z" fill="black"/>
</g>
<g style="mix-blend-mode:screen" opacity="0.7">
<path d="M7.74283 7.74292V27.9983C7.74283 27.9983 7.71532 27.4915 7.68448 26.6059C7.65364 25.7202 7.60112 24.4511 7.56778 22.9328C7.5261 21.4141 7.49401 19.6403 7.47234 17.741C7.46317 16.7912 7.454 15.8105 7.44483 14.8115C7.43566 13.8125 7.43858 12.8014 7.43566 11.7898C7.43274 10.7783 7.4415 9.76096 7.44775 8.76528C7.44483 8.27014 7.46025 7.76501 7.44483 7.29905C7.42312 6.83538 7.35726 6.37484 7.24811 5.92368C7.04151 5.06307 6.68788 4.24461 6.20283 3.50427C5.38494 2.26408 4.23013 1.28305 2.87403 0.676433C2.39253 0.460341 1.88962 0.295502 1.37363 0.184633C1.03965 0.112736 0.701965 0.0593065 0.362107 0.0245899C0.125377 0.00916914 -0.000488281 0 -0.000488281 0C2.05293 0.000662889 4.02204 0.816699 5.47397 2.26873C6.92594 3.72075 7.74187 5.68991 7.74241 7.74333L7.74283 7.74292Z" fill="white"/>
</g>
</g>
<defs>
<linearGradient id="paint0_linear_505_16658" x1="-3.86989e-09" y1="12.5" x2="23" y2="13" gradientUnits="userSpaceOnUse">
<stop stop-color="#009FFF"/>
<stop offset="1" stop-color="#009FFF"/>
</linearGradient>
<linearGradient id="paint1_linear_505_16658" x1="11.1969" y1="24.5943" x2="21.716" y2="24.9147" gradientUnits="userSpaceOnUse">
<stop stop-color="#009FFF"/>
<stop offset="1" stop-color="#009FFF"/>
</linearGradient>
</defs>
</svg>
