<svg width="22" height="22" viewBox="0 0 22 22" fill="none" xmlns="http://www.w3.org/2000/svg">
<path d="M11.75 2.75V19.25H10.25V2.75H11.75ZM10.25 0.5C9.00781 0.5 8 1.50781 8 2.75V19.25C8 20.4922 9.00781 21.5 10.25 21.5H11.75C12.9922 21.5 14 20.4922 14 19.25V2.75C14 1.50781 12.9922 0.5 11.75 0.5H10.25ZM4.25 11.75V19.25H2.75V11.75H4.25ZM2.75 9.5C1.50781 9.5 0.5 10.5078 0.5 11.75V19.25C0.5 20.4922 1.50781 21.5 2.75 21.5H4.25C5.49219 21.5 6.5 20.4922 6.5 19.25V11.75C6.5 10.5078 5.49219 9.5 4.25 9.5H2.75ZM17.75 5.75H19.25V19.25H17.75V5.75ZM15.5 5.75V19.25C15.5 20.4922 16.5078 21.5 17.75 21.5H19.25C20.4922 21.5 21.5 20.4922 21.5 19.25V5.75C21.5 4.50781 20.4922 3.5 19.25 3.5H17.75C16.5078 3.5 15.5 4.50781 15.5 5.75Z" fill="#8A8E97"/>
</svg>
