<svg width="21" height="20" viewBox="0 0 21 20" fill="none" xmlns="http://www.w3.org/2000/svg">
<path d="M7.8335 4.375V6.25H12.8335V4.375C12.8335 2.99609 11.7124 1.875 10.3335 1.875C8.95459 1.875 7.8335 2.99609 7.8335 4.375ZM5.9585 8.125H3.4585V16.25C3.4585 17.2852 4.29834 18.125 5.3335 18.125H15.3335C16.3687 18.125 17.2085 17.2852 17.2085 16.25V8.125H14.7085V10.3125C14.7085 10.832 14.2905 11.25 13.771 11.25C13.2515 11.25 12.8335 10.832 12.8335 10.3125V8.125H7.8335V10.3125C7.8335 10.832 7.41553 11.25 6.896 11.25C6.37646 11.25 5.9585 10.832 5.9585 10.3125V8.125ZM5.9585 6.25V4.375C5.9585 1.95703 7.91553 0 10.3335 0C12.7515 0 14.7085 1.95703 14.7085 4.375V6.25H17.2085C18.2437 6.25 19.0835 7.08984 19.0835 8.125V16.25C19.0835 18.3203 17.4038 20 15.3335 20H5.3335C3.26318 20 1.5835 18.3203 1.5835 16.25V8.125C1.5835 7.08984 2.42334 6.25 3.4585 6.25H5.9585Z" fill="#555764"/>
</svg>
