<svg width="23" height="22" viewBox="0 0 23 22" fill="none" xmlns="http://www.w3.org/2000/svg">
<path d="M0.958333 0.333496C0.427257 0.333496 0 0.779329 0 1.3335C0 1.88766 0.427257 2.3335 0.958333 2.3335H2.77517C2.92691 2.3335 3.05868 2.446 3.09063 2.60433L5.15104 13.896C5.41059 15.3127 6.59653 16.3335 7.97413 16.3335H19.4861C20.0172 16.3335 20.4444 15.8877 20.4444 15.3335C20.4444 14.7793 20.0172 14.3335 19.4861 14.3335H7.97413C7.51493 14.3335 7.11962 13.9918 7.03177 13.521L6.81615 12.3335H18.3361C19.6378 12.3335 20.7759 11.4252 21.1113 10.1127L22.7484 3.76683C23.024 2.7085 22.2573 1.66683 21.2071 1.66683H4.79566C4.43229 0.866829 3.65764 0.333496 2.77517 0.333496H0.958333ZM5.2349 3.66683H20.7918L19.2625 9.59183C19.1507 10.0293 18.7714 10.3335 18.3361 10.3335H6.45278L5.2349 3.66683ZM7.02778 21.6668C7.53611 21.6668 8.02362 21.4561 8.38307 21.081C8.74251 20.706 8.94444 20.1973 8.94444 19.6668C8.94444 19.1364 8.74251 18.6277 8.38307 18.2526C8.02362 17.8775 7.53611 17.6668 7.02778 17.6668C6.51945 17.6668 6.03193 17.8775 5.67249 18.2526C5.31305 18.6277 5.11111 19.1364 5.11111 19.6668C5.11111 20.1973 5.31305 20.706 5.67249 21.081C6.03193 21.4561 6.51945 21.6668 7.02778 21.6668ZM20.4444 19.6668C20.4444 19.1364 20.2425 18.6277 19.8831 18.2526C19.5236 17.8775 19.0361 17.6668 18.5278 17.6668C18.0194 17.6668 17.5319 17.8775 17.1725 18.2526C16.813 18.6277 16.6111 19.1364 16.6111 19.6668C16.6111 20.1973 16.813 20.706 17.1725 21.081C17.5319 21.4561 18.0194 21.6668 18.5278 21.6668C19.0361 21.6668 19.5236 21.4561 19.8831 21.081C20.2425 20.706 20.4444 20.1973 20.4444 19.6668Z" fill="#8A8E97"/>
</svg>
