<svg width="16" height="18" viewBox="0 0 16 18" fill="none" xmlns="http://www.w3.org/2000/svg">
<path d="M14.5625 17.75C15.082 17.75 15.5 17.332 15.5 16.8125C15.5 16.293 15.082 15.875 14.5625 15.875H1.4375C0.917969 15.875 0.5 16.293 0.5 16.8125C0.5 17.332 0.917969 17.75 1.4375 17.75H14.5625ZM7.31641 12.4531C7.49219 12.6406 7.74219 12.75 8 12.75C8.25781 12.75 8.50391 12.6445 8.68359 12.4531L13.6836 7.14062C14.0391 6.76172 14.0195 6.17188 13.6445 5.81641C13.2695 5.46094 12.6758 5.48047 12.3203 5.85547L8.9375 9.44922V6.1875V1.1875C8.9375 0.667969 8.51953 0.25 8 0.25C7.48047 0.25 7.0625 0.667969 7.0625 1.1875V6.1875V9.44922L3.68359 5.85938C3.32812 5.48047 2.73438 5.46484 2.35938 5.82031C1.98437 6.17578 1.96484 6.76953 2.32031 7.14453L7.32031 12.457L7.31641 12.4531Z" fill="#515463"/>
</svg>
