<svg width="148" height="94" viewBox="0 0 148 94" fill="none" xmlns="http://www.w3.org/2000/svg">
<path d="M34.0968 65.284L33.237 67.8143L28.7156 82.8834L13.3808 95.2579L106.041 107.623L165.515 131.524L164.693 -0.0038422L163.801 2.43049C162.908 4.86483 161.124 9.73351 158.962 13.4861C156.8 17.2386 154.261 19.8751 150.848 19.9284C147.435 19.9816 143.149 17.4518 139.265 16.1138C135.382 14.7758 131.902 14.6296 129.611 18.0015C127.32 21.3734 126.219 28.2633 123.489 30.3354C120.759 32.4075 116.4 29.6618 112.184 27.3394C107.967 25.017 103.894 23.1178 100.867 24.3122C97.8404 25.5066 95.8595 29.7945 93.5236 33.0327C91.1878 36.2709 88.497 38.4595 86.1343 41.6184C83.7716 44.7774 81.7371 48.9067 78.9829 50.9078C76.2287 52.9089 72.7549 52.7817 69.4607 53.1858C66.1664 53.5899 63.0518 54.5252 60.2967 56.5234C57.5415 58.5216 55.1458 61.5828 51.5555 61.1115C47.9653 60.6401 43.1805 56.6363 39.9283 57.1646C36.6761 57.693 34.9565 62.7537 34.0968 65.284Z" fill="url(#paint0_linear_505_16779)"/>
<path d="M14.4103 95.6991L29.2176 82.8531L33.4934 65.1771C34.3614 62.7067 36.0973 57.7659 39.323 57.2305C42.5486 56.6951 47.264 60.5651 50.8183 61.0015C54.3725 61.4378 56.7657 58.4405 59.5082 56.4764C62.2508 54.5123 65.3427 53.5814 68.6092 53.1668C71.8757 52.7522 75.3168 52.854 78.0584 50.8871C80.8 48.9202 82.8421 44.8846 85.2031 41.7923C87.5641 38.6999 90.2442 36.5508 92.5791 33.3813C94.9141 30.2119 96.904 26.0222 99.9108 24.8394C102.918 23.6567 106.941 25.4809 111.104 27.7166C115.266 29.9522 119.568 32.5993 122.287 30.5633C125.005 28.5274 126.139 21.8085 128.43 18.5091C130.722 15.2098 134.169 15.3301 138.008 16.6088C141.847 17.8876 146.078 20.3249 149.46 20.2513C152.842 20.1777 155.374 17.5932 157.54 13.9238C159.706 10.2545 161.505 5.50024 162.405 3.12312L163.304 0.745988" stroke="#CCE6DB" stroke-width="2"/>
<defs>
<linearGradient id="paint0_linear_505_16779" x1="75.4065" y1="40.2112" x2="195.557" y2="130.781" gradientUnits="userSpaceOnUse">
<stop stop-color="#EDFAF4" stop-opacity="0.3"/>
<stop offset="1" stop-color="#EBF9F3" stop-opacity="0"/>
</linearGradient>
</defs>
</svg>
