<svg width="24" height="25" viewBox="0 0 24 25" fill="none" xmlns="http://www.w3.org/2000/svg">
<g clip-path="url(#clip0_505_16725)">
<path d="M23.6719 13.2969C24.1125 12.8562 24.1125 12.1438 23.6719 11.7078L17.6719 5.70312C17.2313 5.2625 16.5188 5.2625 16.0828 5.70312C15.6469 6.14375 15.6422 6.85625 16.0828 7.29219L20.1609 11.3703L8.625 11.375C8.00156 11.375 7.5 11.8766 7.5 12.5C7.5 13.1234 8.00156 13.625 8.625 13.625H20.1609L16.0828 17.7031C15.6422 18.1437 15.6422 18.8562 16.0828 19.2922C16.5234 19.7281 17.2359 19.7328 17.6719 19.2922L23.6719 13.2969ZM7.875 4.25C8.49844 4.25 9 3.74844 9 3.125C9 2.50156 8.49844 2 7.875 2H4.125C1.84688 2 0 3.84688 0 6.125V18.875C0 21.1531 1.84688 23 4.125 23H7.875C8.49844 23 9 22.4984 9 21.875C9 21.2516 8.49844 20.75 7.875 20.75H4.125C3.08906 20.75 2.25 19.9109 2.25 18.875V6.125C2.25 5.08906 3.08906 4.25 4.125 4.25H7.875Z" fill="#8A8E97"/>
</g>
<defs>
<clipPath id="clip0_505_16725">
<rect width="24" height="24" fill="white" transform="translate(0 0.5)"/>
</clipPath>
</defs>
</svg>
