<svg width="20" height="20" viewBox="0 0 20 20" fill="none" xmlns="http://www.w3.org/2000/svg">
<g clip-path="url(#clip0_505_16509)">
<path d="M11.6667 16.6669C11.6667 16.9724 11.4167 17.2224 11.1111 17.2224H2.22222C1.91667 17.2224 1.66667 16.9724 1.66667 16.6669V3.33355C1.66667 3.02799 1.91667 2.77799 2.22222 2.77799H7.77778V5.55577C7.77778 6.17036 8.27431 6.66688 8.88889 6.66688H11.6667V10.0002H13.3333V6.47591C13.3333 5.88563 13.1007 5.31966 12.684 4.90299L9.53819 1.76063C9.12153 1.34397 8.55903 1.11133 7.96875 1.11133H2.22222C0.996528 1.11133 0 2.10786 0 3.33355V16.6669C0 17.8926 0.996528 18.8891 2.22222 18.8891H11.1111C12.3368 18.8891 13.3333 17.8926 13.3333 16.6669V13.8891H11.6667V16.6669ZM16.9792 8.57661C16.6528 8.25022 16.125 8.25022 15.8021 8.57661C15.4792 8.903 15.4757 9.43077 15.8021 9.75369L17.1562 11.1079H7.5C7.03819 11.1079 6.66667 11.4794 6.66667 11.9412C6.66667 12.403 7.03819 12.7745 7.5 12.7745H17.1562L15.8021 14.1287C15.4757 14.4551 15.4757 14.9829 15.8021 15.3058C16.1285 15.6287 16.6562 15.6322 16.9792 15.3058L19.7569 12.528C20.0833 12.2016 20.0833 11.6738 19.7569 11.3509L16.9792 8.57313V8.57661Z" fill="white"/>
</g>
<defs>
<clipPath id="clip0_505_16509">
<rect width="20" height="20" fill="white"/>
</clipPath>
</defs>
</svg>
