<svg width="24" height="24" viewBox="0 0 24 24" fill="none" xmlns="http://www.w3.org/2000/svg">
<path d="M11.9999 0C11.1702 0 10.4999 0.670312 10.4999 1.5V2.33906C7.10149 2.87813 4.49993 5.82187 4.49993 9.375V10.9406C4.49993 13.0687 3.77337 15.1359 2.4468 16.7953L1.74837 17.6719C1.47649 18.0094 1.42493 18.4734 1.61243 18.8625C1.79993 19.2516 2.19368 19.5 2.62493 19.5H21.3749C21.8062 19.5 22.1999 19.2516 22.3874 18.8625C22.5749 18.4734 22.5234 18.0094 22.2515 17.6719L21.5531 16.8C20.2265 15.1359 19.4999 13.0687 19.4999 10.9406V9.375C19.4999 5.82187 16.8984 2.87813 13.4999 2.33906V1.5C13.4999 0.670312 12.8296 0 11.9999 0ZM11.9999 4.5H12.3749C15.0656 4.5 17.2499 6.68437 17.2499 9.375V10.9406C17.2499 13.1859 17.9015 15.375 19.1109 17.25H4.88899C6.09837 15.375 6.74993 13.1859 6.74993 10.9406V9.375C6.74993 6.68437 8.9343 4.5 11.6249 4.5H11.9999ZM14.9999 21H11.9999H8.99993C8.99993 21.7969 9.31399 22.5609 9.87649 23.1234C10.439 23.6859 11.2031 24 11.9999 24C12.7968 24 13.5609 23.6859 14.1234 23.1234C14.6859 22.5609 14.9999 21.7969 14.9999 21Z" fill="#6E6E6E"/>
<circle cx="18" cy="4" r="3" fill="#CE1111"/>
</svg>
