<svg width="24" height="24" viewBox="0 0 24 24" fill="none" xmlns="http://www.w3.org/2000/svg">
<g clip-path="url(#clip0_505_16716)">
<path d="M12 2.25C13.9891 2.25 15.8968 3.04018 17.3033 4.4467C18.7098 5.85322 19.5 7.76088 19.5 9.75C19.5 11.7391 18.7098 13.6468 17.3033 15.0533C15.8968 16.4598 13.9891 17.25 12 17.25C10.0109 17.25 8.10322 16.4598 6.6967 15.0533C5.29018 13.6468 4.5 11.7391 4.5 9.75C4.5 7.76088 5.29018 5.85322 6.6967 4.4467C8.10322 3.04018 10.0109 2.25 12 2.25ZM12 19.5C14.5859 19.5 17.0658 18.4728 18.8943 16.6443C20.7228 14.8158 21.75 12.3359 21.75 9.75C21.75 7.16414 20.7228 4.68419 18.8943 2.85571C17.0658 1.02723 14.5859 0 12 0C9.41414 0 6.93419 1.02723 5.10571 2.85571C3.27723 4.68419 2.25 7.16414 2.25 9.75C2.25 12.3359 3.27723 14.8158 5.10571 16.6443C6.93419 18.4728 9.41414 19.5 12 19.5ZM3 16.5C1.34531 16.5 0 17.8453 0 19.5V21C0 22.6547 1.34531 24 3 24H21C22.6547 24 24 22.6547 24 21V19.5C24 17.8453 22.6594 16.5 21 16.5C20.3625 17.3531 19.6031 18.1078 18.75 18.75H21C21.4125 18.75 21.75 19.0875 21.75 19.5V21C21.75 21.4125 21.4125 21.75 21 21.75H3C2.5875 21.75 2.25 21.4125 2.25 21V19.5C2.25 19.0875 2.5875 18.75 3 18.75H5.25C4.39687 18.1078 3.64219 17.3531 3 16.5ZM12.9375 4.875C12.9375 4.35938 12.5156 3.9375 12 3.9375C11.4844 3.9375 11.0625 4.35938 11.0625 4.875V5.53125C10.7063 5.61094 10.35 5.7375 10.0219 5.92969C9.37031 6.31875 8.80781 6.99844 8.8125 7.9875C8.81719 8.93906 9.375 9.53906 9.97031 9.89531C10.4859 10.2047 11.1281 10.4016 11.6391 10.5516L11.7188 10.575C12.3094 10.7531 12.7406 10.8938 13.0312 11.0766C13.2703 11.2266 13.3031 11.3297 13.3078 11.4609C13.3125 11.6953 13.2234 11.8359 13.0312 11.9531C12.7969 12.0984 12.4266 12.1875 12.0281 12.1734C11.5078 12.1547 11.0203 11.9906 10.3828 11.775C10.275 11.7375 10.1625 11.7 10.0453 11.6625C9.55313 11.4984 9.02344 11.7656 8.85938 12.2531C8.69531 12.7406 8.9625 13.275 9.45 13.4391C9.53906 13.4672 9.6375 13.5 9.73594 13.5375C10.125 13.6734 10.575 13.8281 11.0578 13.9313V14.625C11.0578 15.1406 11.4797 15.5625 11.9953 15.5625C12.5109 15.5625 12.9328 15.1406 12.9328 14.625V13.9781C13.3078 13.8984 13.6828 13.7672 14.0203 13.5563C14.6906 13.1391 15.1969 12.4266 15.1828 11.4469C15.1687 10.4953 14.6344 9.88125 14.0297 9.49688C13.4906 9.15938 12.8156 8.95312 12.2906 8.79375L12.2578 8.78437C11.6578 8.60156 11.2312 8.47031 10.9312 8.29219C10.6875 8.14687 10.6828 8.0625 10.6828 7.97812C10.6828 7.80469 10.7484 7.67344 10.9734 7.54219C11.2266 7.39219 11.6109 7.30312 11.9813 7.30781C12.4313 7.3125 12.9281 7.41094 13.4437 7.55156C13.9453 7.68281 14.4562 7.3875 14.5922 6.88594C14.7281 6.38437 14.4281 5.87344 13.9266 5.7375C13.6219 5.65781 13.2844 5.57812 12.9375 5.51719V4.875Z" fill="#8A8E97"/>
</g>
<defs>
<clipPath id="clip0_505_16716">
<rect width="24" height="24" fill="white"/>
</clipPath>
</defs>
</svg>
