<svg width="16" height="16" viewBox="0 0 16 16" fill="none" xmlns="http://www.w3.org/2000/svg">
<g clip-path="url(#clip0_505_16732)">
<path d="M11.5 6.5C11.5 5.17392 10.9732 3.90215 10.0355 2.96447C9.09785 2.02678 7.82608 1.5 6.5 1.5C5.17392 1.5 3.90215 2.02678 2.96447 2.96447C2.02678 3.90215 1.5 5.17392 1.5 6.5C1.5 7.82608 2.02678 9.09785 2.96447 10.0355C3.90215 10.9732 5.17392 11.5 6.5 11.5C7.82608 11.5 9.09785 10.9732 10.0355 10.0355C10.9732 9.09785 11.5 7.82608 11.5 6.5ZM10.5344 11.5969C9.42813 12.475 8.025 13 6.5 13C2.90938 13 0 10.0906 0 6.5C0 2.90938 2.90938 0 6.5 0C10.0906 0 13 2.90938 13 6.5C13 8.025 12.475 9.42813 11.5969 10.5344L15.7813 14.7188C16.075 15.0125 16.075 15.4875 15.7813 15.7781C15.4875 16.0688 15.0125 16.0719 14.7219 15.7781L10.5344 11.5969Z" fill="#6E6E6E"/>
</g>
<defs>
<clipPath id="clip0_505_16732">
<rect width="16" height="16" fill="white"/>
</clipPath>
</defs>
</svg>
