<svg width="24" height="25" viewBox="0 0 24 25" fill="none" xmlns="http://www.w3.org/2000/svg">
<g clip-path="url(#clip0_505_16721)">
<path d="M12 0.5C12.7969 0.5 13.575 0.579688 14.3344 0.725C14.7047 0.795313 15.3563 1.01094 15.7125 1.66719C15.8063 1.84062 15.8813 2.02344 15.9281 2.22031L16.3641 4.025C16.4297 4.29687 16.8891 4.56406 17.1563 4.48438L18.9375 3.95938C19.125 3.90313 19.3172 3.875 19.5094 3.87031C20.2641 3.84688 20.775 4.31094 21.0235 4.59219C22.0594 5.76875 22.8563 7.15156 23.3625 8.6375C23.4844 8.99375 23.625 9.65938 23.236 10.2969C23.1328 10.4656 23.0063 10.625 22.861 10.7656L21.5156 12.0453C21.3188 12.2328 21.3188 12.7719 21.5156 12.9594L22.861 14.2391C23.0063 14.3797 23.1328 14.5391 23.236 14.7078C23.6203 15.3453 23.4797 16.0109 23.3625 16.3672C22.8563 17.8531 22.0594 19.2312 21.0235 20.4125C20.775 20.6937 20.2594 21.1578 19.5094 21.1344C19.3172 21.1297 19.125 21.0969 18.9375 21.0453L17.1563 20.5156C16.8891 20.4359 16.4297 20.7031 16.3641 20.975L15.9281 22.7797C15.8813 22.9766 15.8063 23.1641 15.7125 23.3328C15.3516 23.9891 14.7 24.2 14.3344 24.275C13.575 24.4203 12.7969 24.5 12 24.5C11.2031 24.5 10.425 24.4203 9.66564 24.275C9.29533 24.2047 8.64377 23.9891 8.28752 23.3328C8.19377 23.1594 8.11877 22.9766 8.07189 22.7797L7.63595 20.975C7.57033 20.7031 7.11095 20.4359 6.84377 20.5156L5.06252 21.0406C4.87502 21.0969 4.68283 21.125 4.49064 21.1297C3.73595 21.1531 3.22502 20.6891 2.97658 20.4078C1.94533 19.2313 1.14377 17.8484 0.637516 16.3625C0.515641 16.0062 0.375016 15.3406 0.764078 14.7031C0.867203 14.5344 0.993766 14.375 1.13908 14.2344L2.48439 12.9547C2.68127 12.7672 2.68127 12.2281 2.48439 12.0406L1.13439 10.7609C0.989078 10.6203 0.862516 10.4609 0.759391 10.2922C0.375016 9.65469 0.515641 8.98906 0.637516 8.6375C1.14377 7.15156 1.94064 5.77344 2.97658 4.59219C3.22502 4.31094 3.74064 3.84688 4.49064 3.87031C4.68283 3.875 4.87502 3.90781 5.06252 3.95938L6.84377 4.48438C7.11095 4.56406 7.57033 4.29687 7.63595 4.025L8.07189 2.22031C8.11877 2.02344 8.19377 1.83594 8.28752 1.66719C8.64845 1.01094 9.30002 0.8 9.66564 0.725C10.425 0.579688 11.2031 0.5 12 0.5ZM10.2235 2.90938L9.82502 4.55469C9.45939 6.06875 7.70158 7.08125 6.20627 6.64531L4.58908 6.16719C3.81564 7.07188 3.20627 8.12188 2.80783 9.24688L4.03595 10.4141C5.16095 11.4828 5.16095 13.5172 4.03595 14.5859L2.80783 15.7531C3.20627 16.8781 3.81564 17.9281 4.58908 18.8328L6.21095 18.3547C7.70158 17.9141 9.46408 18.9312 9.8297 20.4453L10.2281 22.0906C11.3813 22.3016 12.6328 22.3016 13.786 22.0906L14.1844 20.4453C14.55 18.9312 16.3078 17.9187 17.8031 18.3547L19.425 18.8328C20.1985 17.9281 20.8078 16.8781 21.2063 15.7531L19.9781 14.5859C18.8531 13.5172 18.8531 11.4828 19.9781 10.4141L21.2063 9.24688C20.8078 8.12188 20.1985 7.07188 19.425 6.16719L17.8031 6.64531C16.3125 7.08594 14.55 6.06875 14.1844 4.55469L13.786 2.90938C12.6328 2.69844 11.3813 2.69844 10.2281 2.90938H10.2235ZM9.75002 12.5C9.75002 13.0967 9.98707 13.669 10.409 14.091C10.831 14.5129 11.4033 14.75 12 14.75C12.5968 14.75 13.169 14.5129 13.591 14.091C14.013 13.669 14.25 13.0967 14.25 12.5C14.25 11.9033 14.013 11.331 13.591 10.909C13.169 10.4871 12.5968 10.25 12 10.25C11.4033 10.25 10.831 10.4871 10.409 10.909C9.98707 11.331 9.75002 11.9033 9.75002 12.5ZM12 17C10.8065 17 9.66195 16.5259 8.81804 15.682C7.97412 14.8381 7.50002 13.6935 7.50002 12.5C7.50002 11.3065 7.97412 10.1619 8.81804 9.31802C9.66195 8.47411 10.8065 8 12 8C13.1935 8 14.3381 8.47411 15.182 9.31802C16.0259 10.1619 16.5 11.3065 16.5 12.5C16.5 13.6935 16.0259 14.8381 15.182 15.682C14.3381 16.5259 13.1935 17 12 17Z" fill="#8A8E97"/>
</g>
<defs>
<clipPath id="clip0_505_16721">
<rect width="24" height="24" fill="white" transform="translate(0 0.5)"/>
</clipPath>
</defs>
</svg>
