<svg width="24" height="24" viewBox="0 0 24 24" fill="none" xmlns="http://www.w3.org/2000/svg">
<path d="M21.1291 6.72933C21.3708 7.11266 21.3958 7.5835 21.2249 7.9835C21.0625 8.36683 20.7624 8.60016 20.3874 8.65016C20.3041 8.66266 20.2249 8.66683 20.1458 8.66683C19.6583 8.66683 19.2208 8.45433 18.9083 8.11683C18.5291 7.70016 17.9916 7.46266 17.4249 7.46266C16.8583 7.46266 16.3208 7.70433 15.9458 8.121C15.6416 8.4585 15.2083 8.671 14.7125 8.671C14.2208 8.671 13.7833 8.4585 13.4791 8.121C13.0999 7.70016 12.5624 7.46266 11.9958 7.46266C11.4291 7.46266 10.8916 7.70016 10.5124 8.121C10.2083 8.4585 9.77495 8.671 9.27912 8.671C8.78745 8.671 8.34995 8.4585 8.04578 8.121C7.66662 7.70016 7.12912 7.46266 6.56245 7.46266C5.99578 7.46266 5.45828 7.70016 5.07912 8.121C4.77495 8.4585 4.34162 8.671 3.84578 8.671C3.77078 8.671 3.68745 8.66683 3.60412 8.65433C3.23328 8.60433 2.93745 8.371 2.77495 7.98766C2.60412 7.58766 2.62912 7.11683 2.87078 6.7335L5.01662 3.3335H18.9833L21.1291 6.72933ZM20.1458 10.6668C20.3166 10.6668 20.4833 10.6543 20.6458 10.6335C22.9583 10.3252 24.0541 7.61266 22.8166 5.6585L20.4291 1.87933C20.2166 1.54183 19.8375 1.3335 19.4333 1.3335H4.56662C4.16245 1.3335 3.78328 1.54183 3.57078 1.87933L1.17912 5.6585C-0.0542182 7.6085 1.03745 10.321 3.34162 10.6335C3.50828 10.6543 3.67912 10.6668 3.84578 10.6668C4.66245 10.6668 5.40828 10.4002 6.00828 9.9585C6.20828 9.81266 6.39161 9.64183 6.55828 9.46266C6.72495 9.646 6.90828 9.81266 7.10828 9.9585C7.71245 10.4002 8.45828 10.6668 9.27495 10.6668C10.0916 10.6668 10.8375 10.4002 11.4416 9.9585C11.6416 9.81266 11.8249 9.64183 11.9916 9.4585C12.1583 9.64183 12.3416 9.8085 12.5416 9.95433C13.1458 10.396 13.8916 10.6627 14.7083 10.6627C15.5333 10.6627 16.2833 10.3918 16.8874 9.94183C17.0833 9.796 17.2624 9.6335 17.4249 9.45433C17.5875 9.6335 17.7708 9.80016 17.9666 9.946C18.5708 10.3918 19.3208 10.6627 20.1416 10.6627L20.1458 10.6668ZM4.66662 15.3335V11.9335C4.39995 11.9793 4.12912 12.0002 3.84995 12.0002C3.62078 12.0002 3.39162 11.9835 3.17078 11.9543H3.16662C2.99578 11.9293 2.82912 11.9002 2.66662 11.8585V15.3335V17.3335V20.0002C2.66662 21.471 3.86245 22.6668 5.33328 22.6668H18.6666C20.1374 22.6668 21.3333 21.471 21.3333 20.0002V17.3335V15.3335V11.8585C21.1666 11.9002 21 11.9335 20.8208 11.9543H20.8166C20.5958 11.9835 20.3708 12.0002 20.1416 12.0002C19.8666 12.0002 19.5958 11.9793 19.3333 11.9335V15.3335H4.66662ZM19.3333 17.3335V20.0002C19.3333 20.3668 19.0333 20.6668 18.6666 20.6668H5.33328C4.96662 20.6668 4.66662 20.3668 4.66662 20.0002V17.3335H19.3333Z" fill="#8A8E97"/>
</svg>
