<svg width="24" height="24" viewBox="0 0 24 24" fill="none" xmlns="http://www.w3.org/2000/svg">
<path d="M10.7578 1.5C11.5547 1.5 12.3187 1.81406 12.8812 2.37656L21.1312 10.6266C22.3031 11.7984 22.3031 13.6969 21.1312 14.8688L14.8734 21.1266C13.7016 22.2984 11.8031 22.2984 10.6312 21.1266L2.38125 12.8766C1.81406 12.3141 1.5 11.5547 1.5 10.7578V3.75C1.5 2.50781 2.50781 1.5 3.75 1.5H10.7578ZM3.75 10.7578C3.75 10.9547 3.82969 11.1469 3.97031 11.2875L12.2203 19.5375C12.5109 19.8281 12.9891 19.8281 13.2797 19.5375L19.5375 13.2797C19.8281 12.9891 19.8281 12.5109 19.5375 12.2203L11.2875 3.97031C11.1469 3.82969 10.9547 3.75 10.7578 3.75H3.75V10.7578ZM6.75 5.25C7.14782 5.25 7.52936 5.40804 7.81066 5.68934C8.09196 5.97064 8.25 6.35218 8.25 6.75C8.25 7.14783 8.09196 7.52936 7.81066 7.81066C7.52936 8.09197 7.14782 8.25 6.75 8.25C6.35217 8.25 5.97064 8.09197 5.68934 7.81066C5.40803 7.52936 5.25 7.14783 5.25 6.75C5.25 6.35218 5.40803 5.97064 5.68934 5.68934C5.97064 5.40804 6.35217 5.25 6.75 5.25Z" fill="#8A8E97"/>
</svg>
