<svg width="20" height="20" viewBox="0 0 20 20" fill="none" xmlns="http://www.w3.org/2000/svg">
<path d="M15.8828 5.88281C16.3711 5.39453 16.3711 4.60156 15.8828 4.11328C15.3945 3.625 14.6016 3.625 14.1133 4.11328L10 8.23047L5.88281 4.11719C5.39453 3.62891 4.60156 3.62891 4.11328 4.11719C3.625 4.60547 3.625 5.39844 4.11328 5.88672L8.23047 10L4.11719 14.1172C3.62891 14.6055 3.62891 15.3984 4.11719 15.8867C4.60547 16.375 5.39844 16.375 5.88672 15.8867L10 11.7695L14.1172 15.8828C14.6055 16.3711 15.3984 16.3711 15.8867 15.8828C16.375 15.3945 16.375 14.6016 15.8867 14.1133L11.7695 10L15.8828 5.88281Z" fill="#515463"/>
</svg>
